<svg width="19" height="19" viewBox="0 0 19 19" fill="none" xmlns="http://www.w3.org/2000/svg">
<path d="M18.788 8.76859C17.7983 7.14992 16.4676 5.84933 14.796 4.86684C13.1243 3.88432 11.359 3.39301 9.5 3.39301C7.64098 3.39301 5.87566 3.88414 4.20396 4.86684C2.53223 5.84933 1.20155 7.14992 0.211975 8.76859C0.0706708 9.01596 0 9.25983 0 9.50022C0 9.7406 0.0706708 9.98448 0.211975 10.2318C1.20155 11.8505 2.53223 13.1512 4.20396 14.1335C5.87566 15.1161 7.64098 15.6071 9.5 15.6071C11.3591 15.6071 13.1243 15.1177 14.796 14.1388C16.4676 13.1599 17.7985 11.8575 18.788 10.2318C18.9294 9.98448 19 9.74071 19 9.50022C19 9.25983 18.9294 9.01596 18.788 8.76859ZM7.22557 5.86871C7.85816 5.23613 8.61623 4.91972 9.49989 4.91972C9.64119 4.91972 9.76144 4.96934 9.86045 5.06823C9.9593 5.16717 10.009 5.28738 10.009 5.42872C10.009 5.57017 9.9593 5.69031 9.86067 5.78909C9.76181 5.88813 9.64149 5.9376 9.50015 5.9376C8.8923 5.9376 8.37261 6.15329 7.94149 6.58437C7.51023 7.01571 7.29472 7.53517 7.29472 8.14302C7.29472 8.28455 7.24511 8.40461 7.14621 8.50362C7.04717 8.6027 6.92707 8.65213 6.78573 8.65213C6.64428 8.65213 6.52414 8.60259 6.42514 8.50362C6.32609 8.40461 6.27663 8.2844 6.27663 8.14302C6.27663 7.25955 6.59303 6.50133 7.22557 5.86871ZM14.1069 12.9622C12.6897 13.8208 11.1541 14.2503 9.5 14.2503C7.84598 14.2503 6.31038 13.821 4.89318 12.9622C3.47598 12.1033 2.2973 10.9494 1.35723 9.50022C2.43162 7.83201 3.77816 6.58433 5.39683 5.75749C4.96567 6.49249 4.75002 7.28777 4.75002 8.14299C4.75002 9.45079 5.21486 10.5691 6.14427 11.4987C7.07369 12.4284 8.19239 12.893 9.5 12.893C10.8077 12.893 11.9261 12.4281 12.8557 11.4987C13.7854 10.5693 14.25 9.45079 14.25 8.14299C14.25 7.28777 14.0343 6.49238 13.6031 5.75749C15.2217 6.58433 16.5683 7.83212 17.6427 9.50022C16.7028 10.9494 15.5242 12.1033 14.1069 12.9622Z" fill="#2F80ED"/>
</svg>
